<?xml version="1.0" standalone="no"?>
<!DOCTYPE svg PUBLIC "-//W3C//DTD SVG 20010904//EN"
 "http://www.w3.org/TR/2001/REC-SVG-20010904/DTD/svg10.dtd">
<svg version="1.0" xmlns="http://www.w3.org/2000/svg"
 width="300.000000pt" height="300.000000pt" viewBox="0 0 300.000000 300.000000"
 preserveAspectRatio="xMidYMid meet">
<metadata>
Created by potrace 1.10, written by Peter Selinger 2001-2011
</metadata>
<g transform="translate(0.000000,300.000000) scale(0.100000,-0.100000)"
fill="#000000" stroke="none">
<path d="M1222 2974 c-192 -35 -426 -135 -597 -256 -300 -212 -525 -562 -596
-930 -21 -108 -26 -236 -8 -205 6 10 21 73 34 140 44 223 93 358 189 521 91
154 215 295 351 400 202 156 384 237 649 291 71 14 143 32 160 40 30 13 29 13
-39 13 -38 0 -103 -6 -143 -14z"/>
<path d="M1573 2983 c6 -10 19 -13 232 -59 142 -31 229 -61 350 -122 417 -208
701 -594 785 -1067 12 -66 28 -133 35 -150 13 -29 13 -28 14 31 2 151 -61 381
-156 566 -197 387 -544 663 -972 774 -102 26 -299 45 -288 27z"/>
<path d="M1290 2855 c-194 -32 -410 -119 -567 -227 -233 -161 -422 -411 -516
-683 -57 -167 -72 -257 -71 -450 0 -180 16 -282 64 -425 74 -219 250 -490 319
-490 20 0 61 35 188 163 101 102 163 171 163 184 0 31 -38 58 -126 92 -146 56
-263 150 -304 244 -100 227 82 516 434 687 312 152 667 184 1021 91 59 -16 74
-17 95 -6 14 8 116 105 228 217 157 159 202 210 202 230 0 32 -69 98 -176 168
-137 89 -304 158 -474 195 -105 23 -371 28 -480 10z m408 -41 c163 -24 336
-84 467 -161 64 -38 224 -155 225 -163 0 -3 -95 -101 -210 -218 l-211 -212
-82 24 c-128 37 -230 50 -392 50 -179 -1 -292 -19 -456 -74 -369 -123 -618
-351 -662 -605 -29 -173 68 -334 262 -434 65 -33 97 -45 198 -76 6 -2 -64 -78
-155 -169 l-167 -166 -21 23 c-44 45 -137 184 -179 267 -56 112 -88 203 -116
331 -34 149 -34 389 0 538 64 291 208 540 419 725 302 263 689 378 1080 320z"/>
<path d="M2275 2249 c-100 -99 -188 -191 -195 -204 -21 -39 -1 -66 81 -110
170 -93 307 -218 371 -341 114 -218 48 -398 -189 -522 -217 -113 -479 -163
-853 -163 -210 0 -263 3 -385 22 -136 20 -117 31 -323 -173 -101 -101 -190
-196 -199 -212 -14 -26 -13 -31 4 -55 54 -72 220 -182 383 -252 493 -213 1072
-108 1467 264 159 151 301 374 367 580 105 325 81 688 -65 996 -85 180 -212
351 -260 351 -15 0 -82 -59 -204 -181z m265 80 c149 -191 238 -395 275 -634
22 -136 15 -346 -14 -475 -136 -597 -634 -1017 -1241 -1046 -334 -17 -648 92
-933 322 l-26 21 195 195 195 194 72 -12 c270 -47 705 -37 964 22 230 51 431
152 518 258 102 125 110 264 23 437 -67 135 -249 297 -423 377 l-50 23 190
193 c104 106 192 193 195 194 3 1 30 -30 60 -69z"/>
<path d="M1396 2034 c-14 -15 -26 -31 -26 -37 0 -6 -13 2 -30 18 -27 26 -33
27 -85 21 -94 -11 -115 -28 -141 -116 -7 -25 -7 -25 -16 7 -14 54 -39 59 -124
28 -90 -33 -134 -72 -134 -119 0 -44 -9 -50 -32 -21 -27 35 -47 31 -115 -18
-73 -55 -154 -146 -192 -217 -159 -302 63 -533 590 -615 57 -9 197 -19 310
-22 399 -11 698 40 923 160 141 75 226 183 226 288 0 144 -119 327 -279 430
-56 36 -74 36 -100 3 l-21 -27 0 40 c0 52 -34 84 -123 118 -71 26 -77 26 -114
-8 -19 -17 -23 -18 -23 -5 0 34 -49 76 -101 87 -90 20 -111 11 -134 -54 l-14
-40 -1 38 c0 27 -7 45 -25 62 -22 23 -32 25 -108 25 -78 0 -86 -2 -111 -26z
m200 -85 c-9 -97 -59 -245 -110 -320 -22 -35 -46 -64 -52 -66 -18 -6 -24 59
-24 265 l0 192 96 0 97 0 -7 -71z m-276 -145 c0 -232 8 -282 52 -319 49 -42
99 -27 163 47 71 83 144 274 160 419 l6 56 72 -16 72 -17 5 -209 c4 -188 7
-214 26 -245 26 -45 62 -65 100 -56 66 17 164 155 209 296 10 30 19 57 21 59
6 7 124 -91 179 -150 104 -114 149 -254 111 -354 -48 -125 -287 -250 -572
-300 -291 -51 -712 -42 -977 19 -230 53 -386 149 -437 269 -44 102 -6 243 96
356 54 60 159 151 175 151 5 0 7 -16 3 -37 -9 -60 12 -230 33 -266 22 -37 58
-53 99 -43 43 11 114 92 157 181 40 80 87 243 87 300 0 32 0 33 73 48 39 8 75
15 80 16 4 0 7 -92 7 -205z m-255 124 c-3 -13 -10 -45 -15 -73 -23 -104 -111
-280 -147 -292 -17 -6 -25 65 -21 196 l3 115 85 37 c47 21 88 38 93 38 4 1 5
-9 2 -21z m1046 -53 c12 -8 -17 -101 -61 -190 -38 -80 -83 -135 -97 -121 -5 4
-10 93 -12 197 l-3 189 82 -35 c45 -19 86 -37 91 -40z m-562 -245 c-37 -69
-89 -120 -123 -120 -26 0 -40 13 -51 50 l-7 25 29 -27 c16 -16 36 -28 45 -28
21 0 84 71 110 125 12 25 24 43 26 40 2 -2 -11 -31 -29 -65z m502 -49 c-57
-80 -141 -96 -141 -27 0 19 1 19 23 -2 13 -12 31 -22 40 -22 17 0 87 66 87 83
0 6 3 8 6 4 3 -3 -3 -19 -15 -36z m-1081 -21 c-38 -54 -88 -66 -114 -28 -28
39 -19 55 13 24 33 -32 55 -30 91 9 32 34 36 31 10 -5z"/>
<path d="M2972 1413 c-7 -21 -19 -78 -28 -128 -98 -564 -465 -999 -986 -1169
-57 -19 -166 -46 -243 -61 -167 -32 -196 -44 -104 -45 151 0 379 60 551 145
402 201 687 556 794 990 22 89 45 305 32 305 -3 0 -10 -17 -16 -37z"/>
<path d="M14 1345 c16 -309 181 -658 427 -904 249 -250 599 -413 914 -427 101
-4 107 -3 75 10 -20 7 -69 19 -110 26 -253 40 -447 115 -647 249 -268 179
-473 461 -572 786 -12 39 -33 124 -46 190 -34 173 -47 194 -41 70z"/>
</g>
</svg>
