<?xml version="1.0" encoding="UTF-8" standalone="no" ?>
<!DOCTYPE svg PUBLIC "-//W3C//DTD SVG 1.1//EN" "http://www.w3.org/Graphics/SVG/1.1/DTD/svg11.dtd">
<svg xmlns="http://www.w3.org/2000/svg" xmlns:xlink="http://www.w3.org/1999/xlink" version="1.1" width="1080" height="1080" viewBox="0 0 1080 1080" xml:space="preserve">
<desc>Created with Fabric.js 5.2.4</desc>
<defs>
</defs>
<g transform="matrix(1 0 0 1 540 540)" id="d8f4b9d5-bda8-453c-8f7d-f325134b4588"  >
<rect style="stroke: none; stroke-width: 1; stroke-dasharray: none; stroke-linecap: butt; stroke-dashoffset: 0; stroke-linejoin: miter; stroke-miterlimit: 4; fill: rgb(255,255,255); fill-rule: nonzero; opacity: 1; visibility: hidden;" vector-effect="non-scaling-stroke"  x="-540" y="-540" rx="0" ry="0" width="1080" height="1080" />
</g>
<g transform="matrix(1 0 0 1 540 540)" id="b1cd6b7f-3f8a-4e34-8767-7047396286d8"  >
</g>
<g transform="matrix(3.25 0 0 3.25 540 642.45)"  >
<rect style="stroke: rgb(0,0,0); stroke-opacity: 0; stroke-width: 1; stroke-dasharray: none; stroke-linecap: butt; stroke-dashoffset: 0; stroke-linejoin: miter; stroke-miterlimit: 4; fill: rgb(255,255,255); fill-opacity: 0; fill-rule: nonzero; opacity: 1;" vector-effect="non-scaling-stroke"  x="-250" y="-250" rx="0" ry="0" width="500" height="500" />
</g>
<g transform="matrix(3.25 0 0 3.25 540 529.75)"  >
<ellipse style="stroke: none; stroke-width: 1; stroke-dasharray: none; stroke-linecap: butt; stroke-dashoffset: 0; stroke-linejoin: miter; stroke-miterlimit: 4; fill: rgb(115,189,6); fill-rule: nonzero; opacity: 1;" vector-effect="non-scaling-stroke"  cx="0" cy="0" rx="151.6" ry="142.366" />
</g>
<g transform="matrix(3.25 0 0 3.25 540 551.39)"  >
<path style="stroke: none; stroke-width: 1; stroke-dasharray: none; stroke-linecap: butt; stroke-dashoffset: 0; stroke-linejoin: miter; stroke-miterlimit: 4; fill: rgb(255,255,255); fill-rule: nonzero; opacity: 1;" vector-effect="non-scaling-stroke"  transform=" translate(-250, -221.99)" d="M 285.251 194.193 L 285.251 203.125 C 285.251 209.568 281.561 215.418 275.529 219.744 C 267.034 225.838 262.179 233.898 260.742 242.28300000000002 C 258.401 255.89000000000001 256.97700000000003 309.399 264.482 344.672 C 259.726 345.149 254.89700000000002 345.38100000000003 250.00500000000002 345.38100000000003 C 245.11300000000003 345.38100000000003 240.28300000000002 345.148 235.51500000000001 344.672 C 243.02 309.399 241.596 255.89000000000004 239.25500000000002 242.28300000000002 C 237.81900000000002 233.89800000000002 232.96400000000003 225.83800000000002 224.46800000000002 219.74400000000003 C 218.437 215.41800000000003 214.746 209.56800000000004 214.746 203.12500000000003 L 214.746 194.19300000000004 L 218.994 100.37500000000004 C 219.044 99.41000000000004 220.17 98.63000000000004 221.595 98.59600000000005 C 223.019 98.63100000000004 224.159 99.41000000000004 224.196 100.37500000000004 L 228.369 192.40200000000004 C 228.394 192.90200000000004 228.703 193.34400000000005 229.186 193.67000000000004 C 229.681 193.99600000000004 230.338 194.19300000000004 231.068 194.19300000000004 C 232.51700000000002 194.19300000000004 233.70600000000002 193.40200000000004 233.75500000000002 192.40200000000004 L 237.92900000000003 100.37500000000004 C 237.97800000000004 99.41000000000004 239.10600000000002 98.63000000000004 240.53000000000003 98.59600000000005 C 241.95400000000004 98.63100000000004 243.08100000000002 99.41000000000004 243.13100000000003 100.37500000000004 L 247.30400000000003 192.40200000000004 C 247.32900000000004 192.90200000000004 247.63800000000003 193.34400000000005 248.12200000000004 193.67000000000004 C 248.60500000000005 193.99600000000004 249.27400000000003 194.19300000000004 249.99200000000005 194.19300000000004 C 251.45300000000006 194.19300000000004 252.64200000000005 193.40200000000004 252.69200000000004 192.40200000000004 L 256.865 100.37500000000004 C 256.914 99.41000000000004 258.04200000000003 98.63000000000004 259.466 98.59600000000005 C 260.89 98.63100000000004 262.017 99.41000000000004 262.067 100.37500000000004 L 266.24 192.40200000000004 C 266.265 192.90200000000004 266.574 193.34400000000005 267.057 193.67000000000004 C 267.54 193.99600000000004 268.196 194.19300000000004 268.927 194.19300000000004 C 270.38800000000003 194.19300000000004 271.577 193.40200000000004 271.627 192.40200000000004 L 275.8 100.37500000000004 C 275.837 99.41000000000004 276.97700000000003 98.63000000000004 278.401 98.59600000000005 C 279.825 98.63100000000004 280.952 99.41000000000004 281.002 100.37500000000004 L 285.251 194.193 z" stroke-linecap="round" />
</g>
<g transform="matrix(3.25 0 0 3.25 274.07 615.37)"  >
<path style="stroke: none; stroke-width: 1; stroke-dasharray: none; stroke-linecap: butt; stroke-dashoffset: 0; stroke-linejoin: miter; stroke-miterlimit: 4; fill: rgb(3,122,0); fill-rule: nonzero; opacity: 1;" vector-effect="non-scaling-stroke"  transform=" translate(-168.19, -241.67)" d="M 214.747 341.124 C 155.32800000000003 326.482 111.51200000000001 275.718 111.51200000000001 215.324 C 111.51200000000001 188.215 120.34200000000001 163.048 135.46300000000002 142.219 C 160.19400000000002 191.797 198.15200000000002 203.09 215.62600000000003 240.108 C 231.107 272.892 224.531 302.688 214.747 341.124 z" stroke-linecap="round" />
</g>
<g transform="matrix(3.25 0 0 3.25 293.98 615.38)"  >
<path style="stroke: none; stroke-width: 1; stroke-dasharray: none; stroke-linecap: butt; stroke-dashoffset: 0; stroke-linejoin: miter; stroke-miterlimit: 4; fill: rgb(115,189,6); fill-rule: nonzero; opacity: 1;" vector-effect="non-scaling-stroke"  transform=" translate(-174.31, -241.67)" d="M 214.752 341.135 C 211.449 332.647 208.154 324.18899999999996 204.36200000000002 315.929 C 200.59900000000002 307.662 196.48200000000003 299.55999999999995 192.02 291.63899999999995 C 183.119 275.76199999999994 172.392 260.94999999999993 161.734 245.87899999999996 C 156.5 238.28299999999996 151.39600000000002 230.50599999999997 147.096 222.28199999999995 C 142.865 214.03399999999996 139.48000000000002 205.34599999999995 137.351 196.40999999999997 C 132.958 178.51299999999998 133.211 160.10599999999997 135.452 142.21199999999996 C 135.263 160.24399999999997 136.139 178.33299999999997 141.103 195.53499999999997 C 143.61100000000002 204.10399999999996 146.949 212.42899999999997 151.297 220.32299999999998 C 155.593 228.24099999999999 160.614 235.83499999999998 165.881 243.33999999999997 C 171.08 250.88899999999998 176.467 258.393 181.506 266.13199999999995 C 186.508 273.88899999999995 191.293 281.80299999999994 195.455 290.00399999999996 C 199.681 298.17499999999995 203.358 306.58099999999996 206.61700000000002 315.10699999999997 C 209.805 323.658 212.496 332.355 214.752 341.135 z" stroke-linecap="round" />
</g>
<g transform="matrix(3.25 0 0 3.25 157.72 534.16)"  >
<path style="stroke: none; stroke-width: 1; stroke-dasharray: none; stroke-linecap: butt; stroke-dashoffset: 0; stroke-linejoin: miter; stroke-miterlimit: 4; fill: rgb(115,189,6); fill-rule: nonzero; opacity: 1;" vector-effect="non-scaling-stroke"  transform=" translate(-132.39, -216.69)" d="M 153.136 229.85 C 130.077 229.85 117.185 216.987 111.649 209.521 C 111.748 207.509 111.884 205.509 112.08200000000001 203.51999999999998 C 113.01100000000001 205.26399999999998 115.94600000000001 210.16099999999997 121.432 214.96399999999997 C 127.983 220.70899999999997 138.212 226.32599999999996 153.135 226.32599999999996 L 153.135 229.85 z" stroke-linecap="round" />
</g>
<g transform="matrix(3.25 0 0 3.25 264.72 781.84)"  >
<path style="stroke: none; stroke-width: 1; stroke-dasharray: none; stroke-linecap: butt; stroke-dashoffset: 0; stroke-linejoin: miter; stroke-miterlimit: 4; fill: rgb(115,189,6); fill-rule: nonzero; opacity: 1;" vector-effect="non-scaling-stroke"  transform=" translate(-165.31, -292.88)" d="M 196.382 296.07 C 187.24200000000002 298.21 178.92000000000002 299.024 171.52700000000002 299.024 C 156.852 299.024 145.75500000000002 295.779 138.895 292.965 C 137.273 290.92999999999995 135.72500000000002 288.85999999999996 134.239 286.743 C 138.103 288.906 151.428 295.442 171.85 295.442 C 178.896 295.442 186.823 294.675 195.49099999999999 292.651 L 196.382 296.07 z" stroke-linecap="round" />
</g>
<g transform="matrix(3.25 0 0 3.25 321.51 587.1)"  >
<path style="stroke: none; stroke-width: 1; stroke-dasharray: none; stroke-linecap: butt; stroke-dashoffset: 0; stroke-linejoin: miter; stroke-miterlimit: 4; fill: rgb(115,189,6); fill-rule: nonzero; opacity: 1;" vector-effect="non-scaling-stroke"  transform=" translate(-182.78, -232.97)" d="M 170.969 255.377 C 189.34699999999998 242.363 190.87 213.219 190.982 207.75300000000001 C 192.208 208.93900000000002 193.422 210.125 194.598 211.323 C 193.954 221.453 190.573 245.899 173.223 258.19100000000003 L 170.969 255.377 z" stroke-linecap="round" />
</g>
<g transform="matrix(3.25 0 0 3.25 805.93 615.37)"  >
<path style="stroke: none; stroke-width: 1; stroke-dasharray: none; stroke-linecap: butt; stroke-dashoffset: 0; stroke-linejoin: miter; stroke-miterlimit: 4; fill: rgb(3,122,0); fill-rule: nonzero; opacity: 1;" vector-effect="non-scaling-stroke"  transform=" translate(-331.81, -241.67)" d="M 285.253 341.124 C 344.67199999999997 326.482 388.48699999999997 275.718 388.48699999999997 215.324 C 388.48699999999997 188.215 379.657 163.048 364.53599999999994 142.219 C 339.80499999999995 191.797 301.8469999999999 203.09 284.37299999999993 240.108 C 268.893 272.892 275.469 302.688 285.253 341.124 z" stroke-linecap="round" />
</g>
<g transform="matrix(3.25 0 0 3.25 786.02 615.38)"  >
<path style="stroke: none; stroke-width: 1; stroke-dasharray: none; stroke-linecap: butt; stroke-dashoffset: 0; stroke-linejoin: miter; stroke-miterlimit: 4; fill: rgb(115,189,6); fill-rule: nonzero; opacity: 1;" vector-effect="non-scaling-stroke"  transform=" translate(-325.69, -241.67)" d="M 285.248 341.135 C 288.551 332.647 291.846 324.18899999999996 295.638 315.929 C 299.40099999999995 307.662 303.518 299.55999999999995 307.97999999999996 291.63899999999995 C 316.881 275.76199999999994 327.60799999999995 260.94999999999993 338.26599999999996 245.87899999999996 C 343.49899999999997 238.28299999999996 348.604 230.50599999999997 352.90399999999994 222.28199999999995 C 357.13499999999993 214.03399999999996 360.5199999999999 205.34599999999995 362.64899999999994 196.40999999999997 C 367.0419999999999 178.51299999999998 366.78899999999993 160.10599999999997 364.54799999999994 142.21199999999996 C 364.73699999999997 160.24399999999997 363.86199999999997 178.33299999999997 358.89699999999993 195.53499999999997 C 356.38899999999995 204.10399999999996 353.05099999999993 212.42899999999997 348.7029999999999 220.32299999999998 C 344.4069999999999 228.24099999999999 339.3859999999999 235.83499999999998 334.1189999999999 243.33999999999997 C 328.9199999999999 250.88899999999998 323.5329999999999 258.393 318.4939999999999 266.13199999999995 C 313.4919999999999 273.88899999999995 308.70699999999994 281.80299999999994 304.5449999999999 290.00399999999996 C 300.3189999999999 298.17499999999995 296.6419999999999 306.58099999999996 293.3829999999999 315.10699999999997 C 290.195 323.658 287.504 332.355 285.248 341.135 z" stroke-linecap="round" />
</g>
<g transform="matrix(3.25 0 0 3.25 922.28 534.16)"  >
<path style="stroke: none; stroke-width: 1; stroke-dasharray: none; stroke-linecap: butt; stroke-dashoffset: 0; stroke-linejoin: miter; stroke-miterlimit: 4; fill: rgb(115,189,6); fill-rule: nonzero; opacity: 1;" vector-effect="non-scaling-stroke"  transform=" translate(-367.61, -216.69)" d="M 346.864 229.85 C 369.923 229.85 382.815 216.987 388.351 209.521 C 388.252 207.509 388.116 205.509 387.918 203.51999999999998 C 386.98900000000003 205.26399999999998 384.05400000000003 210.16099999999997 378.568 214.96399999999997 C 372.017 220.70899999999997 361.787 226.32599999999996 346.864 226.32599999999996 L 346.864 229.85 z" stroke-linecap="round" />
</g>
<g transform="matrix(3.25 0 0 3.25 815.28 781.84)"  >
<path style="stroke: none; stroke-width: 1; stroke-dasharray: none; stroke-linecap: butt; stroke-dashoffset: 0; stroke-linejoin: miter; stroke-miterlimit: 4; fill: rgb(115,189,6); fill-rule: nonzero; opacity: 1;" vector-effect="non-scaling-stroke"  transform=" translate(-334.69, -292.88)" d="M 303.618 296.07 C 312.758 298.21 321.08 299.024 328.473 299.024 C 343.148 299.024 354.244 295.779 361.105 292.965 C 362.72700000000003 290.92999999999995 364.27500000000003 288.85999999999996 365.761 286.743 C 361.89700000000005 288.906 348.572 295.442 328.15000000000003 295.442 C 321.103 295.442 313.177 294.675 304.50800000000004 292.651 L 303.618 296.07 z" stroke-linecap="round" />
</g>
<g transform="matrix(3.25 0 0 3.25 758.49 587.1)"  >
<path style="stroke: none; stroke-width: 1; stroke-dasharray: none; stroke-linecap: butt; stroke-dashoffset: 0; stroke-linejoin: miter; stroke-miterlimit: 4; fill: rgb(115,189,6); fill-rule: nonzero; opacity: 1;" vector-effect="non-scaling-stroke"  transform=" translate(-317.22, -232.97)" d="M 329.031 255.377 C 310.653 242.363 309.13 213.219 309.01800000000003 207.75300000000001 C 307.79200000000003 208.93900000000002 306.57800000000003 210.125 305.40200000000004 211.323 C 306.04600000000005 221.453 309.427 245.899 326.77700000000004 258.19100000000003 L 329.031 255.377 z" stroke-linecap="round" />
</g>
<g transform="matrix(3.25 0 0 3.25 324.19 311.73)"  >
<polygon style="stroke: none; stroke-width: 1; stroke-dasharray: none; stroke-linecap: butt; stroke-dashoffset: 0; stroke-linejoin: miter; stroke-miterlimit: 4; fill: rgb(255,255,255); fill-rule: nonzero; opacity: 1;" vector-effect="non-scaling-stroke"  points="-2.81,-16.7 -5.43,-5.04 -17.44,-1.17 -6.44,4.78 -6.23,16.7 3.19,8.71 15.33,12.21 10.15,1.33 17.44,-8.43 4.82,-7.17 " />
</g>
<g transform="matrix(3.25 0 0 3.25 755.76 311.73)"  >
<polygon style="stroke: none; stroke-width: 1; stroke-dasharray: none; stroke-linecap: butt; stroke-dashoffset: 0; stroke-linejoin: miter; stroke-miterlimit: 4; fill: rgb(255,255,255); fill-rule: nonzero; opacity: 1;" vector-effect="non-scaling-stroke"  points="2.81,-16.7 5.43,-5.04 17.44,-1.17 6.44,4.78 6.23,16.7 -3.19,8.71 -15.33,12.21 -10.15,1.33 -17.44,-8.43 -4.82,-7.17 " />
</g>
<g transform="matrix(3.25 0 0 3.25 540 1005.64)" id="SVGID_x5F_1_x5F_"  >
<path style="stroke: none; stroke-width: 1; stroke-dasharray: none; stroke-linecap: butt; stroke-dashoffset: 0; stroke-linejoin: miter; stroke-miterlimit: 4; fill: none; fill-rule: nonzero; opacity: 1;" vector-effect="non-scaling-stroke"  transform=" translate(-250, -361.74)" d="M 90.82 322.434 C 126.16399999999999 369.952 184.345 401.03600000000006 250.006 401.03600000000006 C 315.654 401.03600000000006 373.835 369.95200000000006 409.18 322.4340000000001" stroke-linecap="round" />
</g>
<g transform="matrix(3.25 0 0 3.25 -130.33 -186.46)" style=""  >
		<text xml:space="preserve" font-family="Times New Roman" font-size="16" font-style="normal" font-weight="normal" style="stroke: none; stroke-width: 1; stroke-dasharray: none; stroke-linecap: butt; stroke-dashoffset: 0; stroke-linejoin: miter; stroke-miterlimit: 4; fill: rgb(0,0,0); fill-rule: nonzero; opacity: 1; white-space: pre;" ><tspan x="-43.77" y="5.03" >Healthy Food</tspan></text>
</g>
</svg>