<?xml version="1.0" standalone="no"?>
<!DOCTYPE svg PUBLIC "-//W3C//DTD SVG 20010904//EN"
 "http://www.w3.org/TR/2001/REC-SVG-20010904/DTD/svg10.dtd">
<svg version="1.0" xmlns="http://www.w3.org/2000/svg"
 width="300.000000pt" height="300.000000pt" viewBox="0 0 300.000000 300.000000"
 preserveAspectRatio="xMidYMid meet">
<metadata>
Created by potrace 1.10, written by Peter Selinger 2001-2011
</metadata>
<g transform="translate(0.000000,300.000000) scale(0.100000,-0.100000)"
fill="#000000" stroke="none">
<path d="M1040 2936 c-176 -49 -319 -193 -365 -367 -19 -71 -19 -190 0 -264
30 -113 63 -155 345 -440 272 -274 330 -345 369 -451 l20 -53 -34 -58 c-40
-69 -95 -227 -95 -275 0 -19 -3 -37 -6 -41 -4 -3 -23 20 -43 51 -66 102 -174
183 -281 212 -61 16 -176 14 -228 -4 -38 -14 -49 -14 -100 -1 -31 8 -89 15
-129 15 -73 0 -73 0 -73 28 0 25 5 29 61 45 82 24 165 105 197 190 25 66 31
224 10 245 -30 30 -152 0 -223 -53 l-45 -35 0 28 c0 25 5 30 43 41 102 30 181
103 217 198 23 62 29 220 8 241 -33 33 -161 2 -227 -54 l-41 -36 0 52 c0 50 2
54 66 124 110 117 144 223 109 341 -18 63 -64 139 -90 149 -24 9 -44 -5 -116
-82 -125 -132 -150 -181 -150 -292 0 -76 20 -141 61 -192 19 -23 30 -48 30
-68 l0 -32 -41 36 c-66 56 -194 87 -227 54 -21 -21 -15 -179 8 -241 36 -95
115 -168 218 -198 37 -11 42 -16 42 -41 l0 -28 -45 35 c-74 56 -197 83 -225
50 -9 -10 -11 -45 -8 -117 5 -115 20 -157 86 -230 36 -40 139 -98 175 -98 13
0 17 -9 17 -43 0 -40 -2 -44 -35 -56 -52 -19 -147 -112 -183 -179 -63 -118
-79 -277 -43 -427 24 -97 51 -159 106 -245 110 -172 236 -258 410 -280 38 -5
95 -16 125 -25 115 -32 278 -14 384 43 118 63 222 210 248 350 l12 62 27 -50
c74 -136 212 -263 364 -336 137 -66 196 -79 365 -79 120 0 158 4 223 23 313
90 544 341 604 656 20 107 13 283 -16 384 -28 97 -86 210 -155 302 -63 83 -98
150 -123 237 -13 48 -17 129 -22 483 -6 404 -8 428 -28 478 -118 290 -439 414
-719 277 -67 -33 -156 -113 -191 -172 l-25 -44 -97 93 c-104 100 -164 139
-256 163 -70 18 -202 18 -265 1z m241 -92 c92 -27 130 -53 236 -156 100 -99
101 -100 90 -131 -6 -20 -13 -200 -17 -457 -6 -424 -6 -425 -31 -491 -14 -37
-38 -88 -54 -115 l-28 -48 -23 52 c-41 93 -84 144 -364 427 -245 248 -279 287
-304 343 -85 194 -9 427 175 535 92 54 220 71 320 41z m934 1 c123 -32 217
-112 278 -234 l32 -66 6 -430 c5 -414 6 -433 28 -500 32 -96 69 -167 135 -255
166 -223 208 -474 121 -723 -34 -98 -79 -169 -164 -259 -121 -128 -261 -202
-431 -229 -463 -72 -885 313 -857 782 9 163 58 290 162 429 31 41 72 107 90
145 66 139 67 147 74 616 l6 425 38 76 c90 183 286 273 482 223z m-661 -123
c31 -33 86 -72 102 -72 5 0 42 35 83 78 41 42 55 55 31 27 -23 -27 -56 -78
-73 -112 -17 -35 -35 -63 -38 -63 -4 0 -11 10 -15 23 -4 12 -48 65 -98 117
-50 52 -75 82 -57 65 19 -16 49 -45 65 -63z m-1031 -41 c24 -41 21 -45 -11
-22 -23 16 -32 18 -49 8 -11 -7 -31 -18 -44 -26 -16 -9 -11 0 16 28 46 49 65
51 88 12z m-10 -151 c0 -31 -7 -71 -16 -90 -18 -37 -123 -160 -137 -160 -14 0
-30 60 -30 112 0 68 19 108 92 189 l63 70 14 -33 c8 -18 14 -58 14 -88z m-149
-280 c10 0 32 10 49 22 l32 23 -29 -38 c-20 -25 -30 -53 -33 -85 -4 -41 -1
-50 21 -71 22 -21 29 -23 51 -13 39 18 39 15 1 -30 -41 -47 -76 -132 -76 -182
0 -26 8 -41 29 -59 l30 -25 -24 -22 c-34 -32 -40 -57 -21 -85 19 -29 46 -32
84 -8 22 14 19 8 -15 -31 -45 -52 -83 -137 -83 -188 0 -21 9 -42 26 -59 l27
-28 -27 -31 c-33 -39 -33 -60 -1 -99 l26 -30 -48 -14 c-26 -7 -50 -12 -52 -11
-2 2 6 15 18 30 29 37 27 85 -5 124 l-27 31 27 28 c17 17 26 38 26 59 0 51
-38 136 -83 188 -34 39 -37 45 -15 31 38 -24 63 -21 82 8 20 30 15 53 -19 85
l-24 22 31 26 c28 24 30 29 25 78 -6 59 -33 117 -80 171 -24 28 -27 35 -12 29
44 -18 53 -17 74 10 28 36 27 50 -14 114 -40 63 -45 83 -12 52 13 -12 31 -22
41 -22z m-220 -98 c3 -5 -8 -22 -24 -37 l-30 -29 0 30 c0 17 3 34 7 37 9 10
41 9 47 -1z m514 -32 l4 -35 -31 29 c-33 31 -32 49 2 44 17 -2 23 -11 25 -38z
m-422 -59 c38 -30 63 -65 79 -112 14 -40 21 -119 10 -119 -16 0 -103 51 -122
72 -34 37 -63 109 -63 161 l0 47 36 -15 c19 -8 46 -23 60 -34z m371 -9 c-5
-64 -32 -125 -69 -158 -21 -20 -99 -64 -113 -64 -3 0 -5 17 -5 38 0 92 60 185
144 223 23 10 43 19 45 19 2 0 1 -26 -2 -58z m-469 -320 c9 -6 4 -16 -18 -37
l-30 -29 0 31 c0 27 9 39 30 42 3 0 11 -3 18 -7z m506 2 c10 -4 16 -18 16 -39
l0 -33 -32 31 c-32 31 -32 33 -1 46 1 1 8 -2 17 -5z m-417 -90 c66 -50 103
-123 103 -201 0 -38 1 -38 -48 -17 -78 32 -142 127 -142 213 0 42 1 43 28 36
15 -3 41 -18 59 -31z m383 -6 c0 -84 -64 -180 -142 -212 -49 -21 -48 -21 -48
20 0 85 58 181 132 217 51 25 58 22 58 -25z m907 -220 c-20 -29 -47 -66 -59
-81 l-23 -28 0 48 c0 26 -4 61 -8 76 l-8 29 29 -21 c27 -19 30 -19 53 -4 13 9
28 23 32 31 5 7 11 11 15 8 3 -3 -11 -30 -31 -58z m-874 -221 l48 -12 -60 -43
c-34 -23 -61 -40 -61 -38 0 3 5 16 11 30 10 20 9 30 -5 51 -15 24 -15 25 1 25
10 0 40 -6 66 -13z m-131 -92 c-68 -72 -131 -189 -159 -295 -13 -48 -18 -102
-17 -205 0 -159 17 -227 80 -323 20 -30 34 -55 32 -57 -9 -10 -122 92 -162
146 -183 243 -194 561 -23 714 65 60 132 84 231 84 l78 1 -60 -65z m486 25
c234 -124 339 -502 214 -770 -134 -288 -592 -292 -732 -6 -105 213 -62 514 96
686 94 101 163 132 284 127 63 -3 86 -9 138 -37z m265 -170 c6 0 21 10 34 22
l23 21 0 -97 c0 -125 22 -229 71 -340 l39 -90 -35 34 -35 34 -29 -28 -29 -28
-4 144 c-5 150 -21 217 -78 327 l-22 44 27 -22 c15 -11 32 -21 38 -21z m-842
-750 c36 0 53 28 39 64 -13 36 0 32 30 -9 14 -19 50 -54 80 -77 30 -23 60 -46
65 -51 16 -15 -108 0 -157 19 -49 19 -153 90 -183 125 -11 12 6 2 38 -24 40
-32 68 -47 88 -47z"/>
<path d="M1063 2796 c-50 -16 -124 -58 -143 -81 -12 -14 -9 -20 17 -47 l31
-31 33 26 c19 14 56 32 82 41 86 29 158 18 241 -35 l49 -31 30 31 c30 30 31
31 12 51 -10 11 -47 35 -83 52 -53 26 -78 32 -145 35 -51 2 -98 -2 -124 -11z"/>
<path d="M2110 2768 c0 -45 0 -45 41 -52 53 -8 127 -47 161 -83 36 -39 69
-105 75 -153 l6 -40 47 0 47 0 -9 57 c-25 156 -163 291 -317 310 l-51 6 0 -45z"/>
<path d="M2010 1349 c-126 -25 -260 -130 -319 -250 -145 -295 46 -637 377
-675 123 -13 276 43 371 137 94 95 150 248 137 371 -32 284 -287 472 -566 417z
m223 -105 c99 -33 199 -133 233 -236 22 -69 16 -205 -14 -271 -29 -65 -113
-151 -181 -184 -50 -25 -67 -28 -161 -28 -94 0 -111 3 -160 27 -191 94 -271
330 -172 511 90 167 274 240 455 181z"/>
<path d="M2110 1172 l0 -49 44 -5 c87 -10 186 -114 186 -197 0 -31 1 -31 51
-31 l51 0 -7 43 c-24 144 -139 260 -282 282 l-43 7 0 -50z"/>
<path d="M763 881 c-99 -26 -196 -117 -229 -215 -23 -67 -15 -186 15 -244 92
-178 306 -238 473 -133 26 17 63 52 83 78 155 210 15 507 -245 519 -36 2 -79
-1 -97 -5z m184 -110 c83 -42 127 -116 128 -212 0 -56 -4 -73 -30 -115 -99
-160 -333 -148 -411 20 -93 199 119 407 313 307z"/>
<path d="M831 1564 c-63 -32 -104 -84 -121 -154 -10 -43 -10 -54 4 -75 16 -24
20 -25 130 -25 125 0 188 14 240 54 63 48 108 180 74 214 -8 8 -54 12 -143 12
-122 0 -135 -2 -184 -26z m294 -25 c12 -18 -23 -94 -57 -125 l-32 -29 32 38
c37 44 40 65 12 95 -11 12 -20 24 -20 27 0 10 59 5 65 -6z m-55 -48 c0 -5 -18
-25 -40 -45 -38 -34 -43 -36 -113 -36 -39 0 -83 -3 -96 -7 l-25 -6 20 33 c30
52 75 70 171 70 46 0 83 -4 83 -9z m-296 -56 c-3 -8 4 -27 15 -41 24 -31 15
-50 -18 -39 -23 7 -28 43 -11 76 12 22 22 26 14 4z"/>
</g>
</svg>
