<?xml version="1.0" standalone="no"?>
<!DOCTYPE svg PUBLIC "-//W3C//DTD SVG 20010904//EN"
 "http://www.w3.org/TR/2001/REC-SVG-20010904/DTD/svg10.dtd">
<svg version="1.0" xmlns="http://www.w3.org/2000/svg"
 width="300.000000pt" height="300.000000pt" viewBox="0 0 300.000000 300.000000"
 preserveAspectRatio="xMidYMid meet">
<metadata>
Created by potrace 1.10, written by Peter Selinger 2001-2011
</metadata>
<g transform="translate(0.000000,300.000000) scale(0.100000,-0.100000)"
fill="#000000" stroke="none">
<path d="M1470 2890 c-18 -18 -20 -33 -20 -155 l0 -135 -27 -6 c-94 -22 -237
-104 -329 -187 -60 -54 -145 -174 -180 -254 -31 -70 -64 -193 -64 -240 0 -23
-6 -36 -17 -40 -30 -11 -33 -24 -33 -145 0 -108 2 -118 20 -128 12 -6 30 -10
42 -8 20 3 23 -10 64 -257 24 -143 44 -263 44 -268 0 -4 -13 -1 -30 8 -72 37
-156 8 -245 -86 -32 -33 -59 -59 -60 -57 -1 2 15 43 36 92 45 103 46 116 19
141 -36 33 -61 9 -99 -94 -19 -50 -37 -91 -41 -91 -4 0 -15 11 -23 24 -20 30
-50 38 -76 19 -29 -19 -26 -49 6 -79 15 -14 23 -28 17 -32 -5 -5 -43 -21 -84
-37 -111 -41 -134 -70 -90 -110 19 -17 23 -17 112 20 51 21 99 42 106 48 7 5
15 7 18 5 3 -3 -23 -32 -57 -64 -33 -33 -70 -76 -80 -96 -37 -73 -18 -179 43
-234 50 -46 450 -303 505 -325 l58 -24 572 0 572 0 234 117 c233 116 235 118
257 163 30 63 25 139 -14 189 l-27 36 51 0 c43 0 52 3 61 24 8 17 8 29 0 45
-10 17 -21 21 -63 21 l-52 0 37 38 c38 39 46 69 25 90 -21 21 -53 13 -89 -24
l-34 -35 -5 53 c-4 46 -8 54 -32 62 -40 14 -58 -6 -58 -66 l0 -49 -35 27 c-24
18 -52 29 -86 32 -48 4 -50 6 -45 31 3 14 31 179 61 366 69 422 61 384 84 378
10 -3 28 0 40 6 20 11 21 20 21 137 0 122 -1 125 -24 133 -19 8 -24 18 -29 68
-26 274 -257 556 -527 643 l-70 23 0 138 c0 177 9 169 -192 169 -135 0 -150
-2 -168 -20z m70 -49 c-5 -11 -15 -23 -20 -26 -17 -10 -12 -21 27 -59 30 -29
34 -36 18 -36 -23 0 -55 -28 -56 -49 0 -9 -4 -6 -10 9 -10 24 -11 127 -2 163
3 10 14 17 29 17 21 0 23 -3 14 -19z m244 3 c3 -9 3 -21 -1 -28 -6 -10 -14 -5
-31 15 l-24 29 25 0 c14 0 28 -7 31 -16z m-47 -90 c1 -30 -2 -54 -5 -52 -38
17 -188 91 -191 94 -14 13 21 19 101 16 l94 -3 1 -55z m53 -97 c0 -42 5 -56
27 -79 l27 -28 -27 -28 c-23 -24 -27 -37 -27 -88 0 -32 -4 -63 -8 -69 -4 -6
-24 8 -49 34 -24 23 -36 41 -28 38 7 -3 25 3 39 14 35 28 35 71 0 98 -48 38
-154 21 -154 -24 0 -6 11 -22 25 -35 32 -30 27 -34 -18 -15 -34 14 -37 14 -65
-10 -32 -27 -42 -24 -42 12 0 13 -12 35 -27 49 l-26 24 22 21 c12 12 26 32 32
46 l9 24 26 -30 c22 -27 33 -31 73 -31 50 0 91 21 91 47 0 9 -10 28 -22 41
-21 23 -22 25 -3 18 54 -20 72 -18 91 7 26 34 34 25 34 -36z m-176 2 c36 -17
66 -33 66 -35 0 -2 -30 -4 -67 -4 l-68 0 -1 35 c0 19 0 35 2 35 1 0 32 -14 68
-31z m126 -159 c0 -16 -4 -30 -8 -30 -5 0 -35 13 -68 29 l-59 30 68 0 67 1 0
-30z m-287 -149 c2 -138 -2 -167 -17 -142 -3 5 -35 17 -71 26 -90 25 -189 16
-269 -24 -33 -16 -62 -28 -64 -26 -2 2 22 36 54 75 54 65 126 129 198 174 31
19 159 75 164 71 1 -1 4 -70 5 -154z m529 92 c121 -66 286 -244 258 -278 -36
-43 -183 -88 -327 -100 l-83 -7 0 226 0 226 53 -21 c28 -11 73 -32 99 -46z
m-246 -148 c1 -36 -1 -65 -4 -63 -4 2 -46 23 -94 48 l-86 44 -4 64 c-2 35 -2
65 0 66 1 2 44 -18 94 -45 l92 -47 2 -67z m-176 -24 c22 -18 23 -20 6 -21 -51
-1 -77 -90 -39 -132 30 -33 6 -30 -52 8 l-58 37 30 12 c35 15 43 31 43 90 0
24 3 51 6 60 6 14 9 13 23 -8 9 -14 27 -34 41 -46z m-528 -13 c-34 -44 -15
-98 35 -98 21 0 17 -6 -29 -43 -61 -49 -113 -130 -123 -189 -6 -32 -3 -46 13
-68 23 -30 20 -40 -12 -40 -35 0 -66 -39 -66 -84 0 -50 31 -86 74 -86 50 0 57
-11 31 -48 l-22 -33 -16 25 c-9 14 -29 31 -44 38 -27 13 -28 16 -31 100 -2 78
0 91 21 125 14 22 30 69 37 113 7 41 25 104 39 140 26 62 85 160 98 160 3 0 1
-6 -5 -12z m758 -66 c0 -67 -10 -73 -51 -30 -35 36 -35 37 -12 43 13 3 28 14
35 25 18 28 28 14 28 -38z m537 -50 c28 -60 25 -74 -9 -42 -22 20 -31 21 -73
4 -16 -7 -15 -2 8 26 24 28 28 40 23 69 -5 34 -4 35 11 16 8 -11 26 -44 40
-73z m-682 31 c87 -44 95 -50 95 -76 0 -28 -1 -29 -37 -22 -51 9 -142 51 -147
67 -8 26 -15 78 -11 78 3 0 48 -21 100 -47z m-309 -26 c28 -7 90 -39 140 -70
122 -77 184 -98 320 -104 178 -9 383 32 464 92 l35 26 18 -57 c9 -32 20 -81
23 -111 l7 -53 -703 0 c-606 0 -701 2 -697 14 3 8 11 34 17 58 24 89 117 174
220 202 70 19 94 19 156 3z m454 -70 c0 -8 9 -22 20 -32 11 -10 20 -22 20 -27
0 -9 -54 -11 -87 -2 l-23 6 28 33 c29 36 42 43 42 22z m628 -223 c20 -31 22
-45 20 -122 -3 -84 -4 -87 -31 -100 -15 -7 -35 -24 -43 -38 l-16 -24 -22 33
c-25 36 -19 47 28 47 45 0 76 35 76 85 0 46 -25 78 -71 89 l-27 6 27 30 c14
16 28 29 31 29 3 1 15 -15 28 -35z m-28 -119 l0 -45 -750 0 -750 0 0 45 0 45
750 0 750 0 0 -45z m-87 -155 c-2 -5 -53 -310 -113 -677 -61 -368 -113 -678
-116 -690 l-4 -23 -390 -2 c-215 -2 -390 -1 -390 1 0 2 12 28 26 58 31 62 42
166 26 227 -6 21 -66 130 -132 241 l-121 202 -54 327 c-30 180 -55 333 -55
339 0 9 163 11 662 9 425 -1 662 -6 661 -12z m-1259 -620 c7 -41 13 -76 11
-78 -1 -1 -17 20 -35 48 -18 27 -45 61 -61 74 l-28 24 24 6 c14 4 33 18 42 33
l18 27 7 -30 c4 -16 14 -63 22 -104z m-428 25 c-9 -35 9 -65 39 -65 13 0 27 4
30 10 6 10 45 34 45 28 0 -2 -59 -62 -132 -133 -72 -72 -115 -111 -95 -88 61
71 59 123 -6 123 l-30 0 23 25 c21 23 23 29 13 56 -11 27 -10 30 5 24 42 -18
52 -16 79 13 35 37 37 38 29 7z m298 1 c29 -12 54 -48 175 -250 78 -129 149
-252 157 -273 30 -70 1 -185 -60 -242 -33 -31 -121 -40 -192 -19 -68 20 -495
306 -512 342 -16 35 -15 61 2 94 20 38 326 339 356 351 34 13 36 13 74 -3z
m1333 -238 c-41 -35 -50 -35 -43 2 3 17 9 44 12 62 l6 32 28 -35 28 -34 -31
-27z m318 -4 c34 22 41 15 19 -19 -18 -27 -18 -28 12 -54 l29 -26 -29 -26
c-28 -25 -28 -26 -12 -57 9 -17 16 -35 16 -40 0 -5 -46 38 -102 97 -57 58
-110 111 -118 119 -13 12 -12 13 5 9 11 -3 27 -8 37 -12 11 -4 23 2 38 23 l22
30 28 -31 c27 -31 28 -31 55 -13z m-113 -132 c123 -123 134 -143 108 -193 -9
-15 -374 -209 -395 -209 -2 0 0 12 5 26 6 14 10 39 10 55 0 24 4 29 23 29 50
0 66 62 21 82 -18 9 -24 17 -20 32 3 12 15 80 27 151 12 72 27 133 33 137 6 4
24 8 41 8 24 0 49 -20 147 -118z m-276 -209 c20 -27 17 -47 -11 -73 l-25 -23
0 34 c0 38 9 79 18 79 2 0 11 -8 18 -17z m-913 -183 c-4 -24 0 -37 17 -55 l23
-25 -81 0 c-45 0 -82 2 -82 5 0 2 16 12 36 21 19 9 48 32 62 51 15 18 28 33
29 33 1 0 0 -14 -4 -30z m921 -39 c19 -8 19 -9 -11 -25 -18 -9 -48 -16 -67
-16 l-35 0 24 36 c14 20 25 44 25 52 0 9 8 5 21 -12 12 -15 31 -31 43 -35z"/>
<path d="M1895 1481 c-75 -34 -122 -115 -112 -193 8 -58 54 -145 93 -174 43
-33 109 -42 151 -21 38 20 89 77 109 125 21 48 22 138 2 177 -47 90 -153 127
-243 86z m115 -86 c35 -18 50 -43 50 -84 0 -41 -17 -81 -48 -113 -31 -33 -51
-35 -80 -8 -54 51 -73 140 -37 180 36 40 71 48 115 25z"/>
<path d="M1236 1394 c-40 -39 0 -98 50 -75 31 14 34 65 5 81 -27 14 -37 13
-55 -6z"/>
<path d="M1520 1252 c-45 -36 -1 -99 50 -72 27 14 27 65 1 80 -25 13 -25 13
-51 -8z"/>
<path d="M1238 1069 c-18 -10 -24 -45 -10 -65 4 -6 17 -14 28 -18 45 -14 76
62 35 84 -24 12 -31 12 -53 -1z"/>
<path d="M1487 926 c-103 -38 -150 -147 -112 -257 33 -94 99 -149 177 -149 41
0 54 5 90 38 89 80 114 207 59 293 -45 72 -136 104 -214 75z m121 -106 c27
-26 36 -60 28 -105 -9 -45 -61 -105 -90 -105 -47 0 -103 96 -91 156 12 67 105
99 153 54z"/>
<path d="M1848 929 c-34 -19 -12 -89 27 -89 41 0 61 71 26 90 -24 12 -31 12
-53 -1z"/>
<path d="M1842 598 c-7 -7 -12 -21 -12 -33 0 -12 5 -26 12 -33 28 -28 78 -7
78 33 0 27 -18 45 -45 45 -12 0 -26 -5 -33 -12z"/>
<path d="M1578 373 c-22 -5 -35 -50 -21 -72 23 -37 88 -12 81 32 -4 24 -36 45
-60 40z"/>
<path d="M855 826 c-30 -45 16 -91 61 -61 29 18 31 46 6 68 -26 24 -49 21 -67
-7z"/>
<path d="M767 692 c-22 -25 -21 -45 3 -67 17 -15 24 -16 45 -7 44 20 27 92
-23 92 -5 0 -16 -8 -25 -18z"/>
<path d="M958 649 c-25 -14 -24 -65 1 -79 11 -5 24 -10 30 -10 16 0 41 30 41
50 0 21 -25 50 -43 50 -7 0 -20 -5 -29 -11z"/>
<path d="M628 599 c-21 -12 -24 -49 -6 -67 28 -28 78 -7 78 33 0 40 -35 56
-72 34z"/>
<path d="M818 509 c-25 -14 -23 -65 2 -79 51 -27 95 36 50 72 -25 21 -29 21
-52 7z"/>
<path d="M995 446 c-30 -45 16 -91 61 -61 29 18 31 46 6 68 -26 24 -49 21 -67
-7z"/>
<path d="M2312 538 c-7 -7 -12 -21 -12 -33 0 -12 5 -26 12 -33 28 -28 78 -7
78 33 0 27 -18 45 -45 45 -12 0 -26 -5 -33 -12z"/>
</g>
</svg>
