<?xml version="1.0" standalone="no"?>
<!DOCTYPE svg PUBLIC "-//W3C//DTD SVG 20010904//EN"
 "http://www.w3.org/TR/2001/REC-SVG-20010904/DTD/svg10.dtd">
<svg version="1.0" xmlns="http://www.w3.org/2000/svg"
 width="300.000000pt" height="300.000000pt" viewBox="0 0 300.000000 300.000000"
 preserveAspectRatio="xMidYMid meet">
<metadata>
Created by potrace 1.10, written by Peter Selinger 2001-2011
</metadata>
<g transform="translate(0.000000,300.000000) scale(0.100000,-0.100000)"
fill="#000000" stroke="none">
<path d="M1802 2850 c-104 -28 -184 -74 -246 -141 -118 -127 -153 -288 -85
-381 16 -23 17 -31 7 -48 -18 -28 -23 -25 -36 18 -22 72 -120 259 -147 280
-33 26 -81 28 -133 7 -68 -29 -98 -74 -74 -112 4 -7 30 -24 56 -38 27 -14 74
-47 104 -73 l55 -47 -174 -6 c-151 -5 -185 -10 -256 -33 -287 -94 -462 -365
-503 -783 -24 -237 32 -531 151 -808 134 -308 333 -487 560 -502 63 -5 90 -1
168 22 113 33 136 30 220 -30 35 -24 76 -47 91 -50 34 -7 74 11 110 50 42 47
102 85 131 85 15 0 62 -14 105 -31 94 -38 169 -37 249 1 117 55 312 293 404
492 112 240 181 556 166 757 -22 309 -166 564 -395 701 -69 41 -230 100 -274
100 -32 0 -34 13 -3 27 45 21 173 132 227 197 78 94 170 235 170 261 0 18 -10
25 -62 39 -146 41 -248 57 -378 62 -113 4 -147 1 -208 -16z m229 -75 c-17 -20
-31 -45 -31 -56 0 -12 -10 -23 -26 -29 -58 -22 -172 -84 -231 -126 l-63 -43 0
35 c0 38 -21 54 -45 34 -10 -8 -15 -31 -15 -64 0 -49 -3 -55 -55 -110 l-54
-59 -11 27 c-25 67 4 171 71 256 91 115 215 166 413 169 l78 1 -31 -35z m214
-7 c55 -12 104 -25 109 -29 19 -17 -157 -235 -248 -305 -120 -95 -224 -139
-352 -150 -73 -7 -168 8 -181 29 -7 12 120 138 188 184 l46 32 59 -40 c59 -39
88 -48 99 -29 12 20 -6 45 -52 75 l-47 29 84 39 c46 22 130 51 186 65 77 19
105 30 110 44 3 10 2 22 -1 28 -9 14 -64 12 -120 -5 -54 -16 -69 -12 -39 9 16
13 17 18 6 36 -15 25 -26 26 153 -12z m-993 -245 c21 -24 97 -173 89 -173 -4
0 -25 19 -46 41 -22 23 -67 59 -99 80 l-59 39 34 15 c45 19 63 19 81 -2z m138
-199 c7 -20 25 -50 41 -68 19 -23 26 -39 22 -54 -3 -12 -8 -22 -12 -22 -3 0
-25 23 -49 50 -24 28 -52 50 -63 50 -22 0 -23 4 -7 33 11 22 37 46 50 47 3 0
12 -16 18 -36z m294 -121 c51 -4 88 -1 160 17 92 22 95 22 177 5 281 -57 477
-219 573 -476 80 -214 73 -491 -19 -749 -115 -319 -414 -666 -603 -696 -32 -5
-52 0 -115 31 -103 50 -130 44 -246 -57 -24 -21 -52 -38 -63 -38 -10 0 -44 27
-76 59 -81 84 -102 87 -233 26 -91 -43 -106 -47 -153 -42 -117 12 -207 84
-321 257 -276 418 -370 823 -279 1200 9 36 36 108 61 160 38 78 59 108 122
170 84 84 149 120 266 150 101 26 204 34 316 25 l94 -7 49 -70 c26 -38 46 -71
44 -73 -6 -6 -149 14 -226 32 -64 15 -75 15 -83 2 -20 -32 -3 -46 87 -71 65
-17 106 -21 234 -22 170 0 230 10 368 64 100 38 116 50 108 78 -9 28 -19 28
-102 -6 -87 -36 -171 -59 -251 -70 l-61 -8 -16 40 c-15 38 -15 41 10 83 l25
43 43 -25 c29 -17 66 -28 110 -32z m-1168 -1276 c83 -211 249 -483 352 -579
77 -71 139 -100 223 -106 61 -4 71 -1 147 37 118 59 144 57 220 -19 41 -41 67
-60 84 -60 26 0 82 33 128 75 34 31 64 45 94 45 36 0 41 -17 7 -25 -16 -3 -60
-33 -97 -66 -45 -38 -78 -59 -94 -59 -14 0 -56 20 -94 44 -88 59 -129 65 -232
35 -78 -22 -176 -28 -239 -16 -109 23 -268 144 -350 267 -94 141 -184 370
-225 569 -31 151 -24 187 11 58 15 -60 45 -150 65 -200z m2023 -149 c-97 -236
-293 -474 -432 -525 -39 -14 -107 -16 -126 -4 -11 7 -4 12 25 20 68 19 140 68
239 163 105 100 182 196 264 331 30 48 55 87 57 87 1 0 -11 -33 -27 -72z"/>
<path d="M2261 1781 c-12 -8 -11 -21 3 -90 50 -250 -5 -513 -150 -718 -47 -66
-49 -93 -8 -93 20 0 36 17 80 85 65 99 107 197 137 315 28 115 29 331 1 435
-19 70 -33 85 -63 66z"/>
<path d="M1950 825 c-26 -31 13 -82 44 -56 19 16 21 42 4 59 -16 16 -33 15
-48 -3z"/>
<path d="M487 2669 c-23 -13 -22 -27 9 -117 36 -109 88 -192 120 -192 32 0 41
26 20 59 -35 54 -85 164 -91 202 -8 43 -31 63 -58 48z"/>
<path d="M754 2587 c-2 -7 -6 -53 -7 -102 -2 -80 0 -90 17 -93 10 -2 22 0 28
6 14 14 27 164 16 185 -10 20 -46 23 -54 4z"/>
<path d="M285 2390 c-16 -25 11 -49 102 -93 96 -46 98 -47 116 -28 11 10 16
24 12 30 -10 17 -181 101 -204 101 -11 0 -23 -5 -26 -10z"/>
</g>
</svg>
