<?xml version="1.0" encoding="UTF-8" standalone="no" ?>
<!DOCTYPE svg PUBLIC "-//W3C//DTD SVG 1.1//EN" "http://www.w3.org/Graphics/SVG/1.1/DTD/svg11.dtd">
<svg xmlns="http://www.w3.org/2000/svg" xmlns:xlink="http://www.w3.org/1999/xlink" version="1.1" width="1080" height="1080" viewBox="0 0 1080 1080" xml:space="preserve">
<desc>Created with Fabric.js 5.2.4</desc>
<defs>
</defs>
<rect x="0" y="0" width="100%" height="100%" fill="transparent"></rect>
<g transform="matrix(1 0 0 1 540 540)" id="601e8e70-ff23-46ac-b650-b342aa912b92"  >
<rect style="stroke: none; stroke-width: 1; stroke-dasharray: none; stroke-linecap: butt; stroke-dashoffset: 0; stroke-linejoin: miter; stroke-miterlimit: 4; fill: rgb(255,255,255); fill-rule: nonzero; opacity: 1; visibility: hidden;" vector-effect="non-scaling-stroke"  x="-540" y="-540" rx="0" ry="0" width="1080" height="1080" />
</g>
<g transform="matrix(1 0 0 1 540 540)" id="43dbd404-1baf-4f23-a666-fdb36dda967a"  >
</g>
<g transform="matrix(3.69 0 0 3.69 539.08 539.08)"  >
<g style="" vector-effect="non-scaling-stroke"   >
		<g transform="matrix(0.13 0 0 -0.13 0 0)"  >
<path style="stroke: none; stroke-width: 1; stroke-dasharray: none; stroke-linecap: butt; stroke-dashoffset: 0; stroke-linejoin: miter; stroke-miterlimit: 4; fill: rgb(0,0,0); fill-rule: nonzero; opacity: 1;" vector-effect="non-scaling-stroke"  transform=" translate(-1509.3, -1490.18)" d="M 788 2541 C 631 2491 508 2367 460 2212 C 441 2151 440 2118 440 1496 C 440 783 439 795 500 681 C 540 607 637 513 712 476 C 825 421 855 419 1544 422 C 2168 425 2176 426 2234 448 C 2319 480 2368 511 2429 571 C 2489 632 2520 681 2552 766 C 2574 824 2575 832 2578 1444 C 2580 1846 2577 2088 2570 2134 C 2541 2328 2401 2487 2211 2544 C 2163 2558 2076 2560 1501 2559 C 895 2559 841 2558 788 2541 z M 2149 2519 C 2326 2494 2485 2348 2526 2171 C 2544 2097 2546 909 2529 828 C 2490 649 2351 509 2172 471 C 2103 457 927 456 849 470 C 690 499 557 616 498 776 C 477 835 477 840 479 1499 C 482 2140 482 2166 502 2219 C 513 2250 529 2282 536 2291 C 544 2299 550 2312 550 2318 C 550 2331 679 2460 692 2460 C 698 2460 714 2468 728 2478 C 755 2497 841 2518 910 2522 C 1009 2530 2094 2526 2149 2519 z" stroke-linecap="round" />
</g>
		<g transform="matrix(0.13 0 0 -0.13 -0.37 -0.11)"  >
<path style="stroke: none; stroke-width: 1; stroke-dasharray: none; stroke-linecap: butt; stroke-dashoffset: 0; stroke-linejoin: miter; stroke-miterlimit: 4; fill: rgb(0,0,0); fill-rule: nonzero; opacity: 1;" vector-effect="non-scaling-stroke"  transform=" translate(-1506.51, -1490.99)" d="M 838 2479 C 781 2466 690 2416 644 2373 C 595 2328 535 2224 521 2158 C 506 2091 506 879 521 825 C 554 705 648 587 746 541 C 842 496 877 494 1529 495 C 2154 497 2218 500 2242 535 C 2246 540 2250 542 2250 537 C 2250 526 2329 577 2369 614 C 2415 656 2463 734 2485 800 C 2503 851 2504 899 2503 1491 C 2502 2185 2502 2189 2443 2283 C 2401 2349 2320 2421 2250 2454 L 2185 2485 L 1530 2487 C 1168 2488 858 2484 838 2479 z M 2194 2436 C 2302 2403 2397 2314 2442 2203 L 2465 2145 L 2468 1530 C 2470 1097 2468 897 2460 855 C 2435 726 2355 625 2232 567 L 2165 535 L 1545 532 C 1107 530 908 532 865 540 C 743 564 639 643 584 755 L 555 815 L 555 1495 L 555 2175 L 586 2235 C 637 2331 730 2410 830 2441 C 844 2445 1146 2449 1501 2449 C 2029 2450 2155 2447 2194 2436 z" stroke-linecap="round" />
</g>
		<g transform="matrix(0.13 0 0 -0.13 -37.5 -36.98)"  >
<path style="stroke: none; stroke-width: 1; stroke-dasharray: none; stroke-linecap: butt; stroke-dashoffset: 0; stroke-linejoin: miter; stroke-miterlimit: 4; fill: rgb(0,0,0); fill-rule: nonzero; opacity: 1;" vector-effect="non-scaling-stroke"  transform=" translate(-1228.02, -1767.53)" d="M 1006 2236 C 895 1977 883 1742 972 1560 C 1013 1475 1130 1357 1225 1304 C 1297 1264 1444 1207 1453 1216 C 1456 1219 1442 1245 1423 1273 C 1373 1347 1279 1538 1237 1650 C 1218 1702 1189 1802 1174 1872 C 1144 2010 1124 2031 1133 1916 C 1143 1790 1217 1574 1309 1400 C 1337 1348 1360 1302 1360 1298 C 1360 1275 1292 1303 1203 1362 C 1094 1434 1017 1529 979 1636 C 950 1717 942 1880 963 1980 C 982 2070 1035 2222 1059 2251 C 1074 2270 1077 2270 1114 2255 C 1156 2237 1260 2176 1300 2145 C 1314 2134 1364 2086 1413 2037 C 1481 1968 1500 1943 1500 1921 C 1500 1905 1494 1887 1486 1881 C 1461 1860 1408 1729 1396 1660 C 1389 1617 1381 1594 1375 1598 C 1362 1606 1300 1733 1300 1749 C 1300 1755 1297 1760 1292 1760 C 1288 1760 1279 1779 1272 1803 C 1265 1826 1245 1873 1229 1908 C 1213 1942 1200 1974 1200 1979 C 1200 1984 1193 1993 1185 2000 C 1158 2023 1168 1975 1215 1852 C 1250 1763 1418 1398 1437 1371 C 1447 1356 1446 1385 1433 1445 C 1404 1582 1434 1738 1512 1855 C 1558 1924 1558 1923 1477 2025 C 1418 2099 1342 2165 1248 2224 C 1179 2266 1070 2320 1051 2320 C 1046 2320 1026 2282 1006 2236 z" stroke-linecap="round" />
</g>
		<g transform="matrix(0.13 0 0 -0.13 36.65 -24.23)"  >
<path style="stroke: none; stroke-width: 1; stroke-dasharray: none; stroke-linecap: butt; stroke-dashoffset: 0; stroke-linejoin: miter; stroke-miterlimit: 4; fill: rgb(0,0,0); fill-rule: nonzero; opacity: 1;" vector-effect="non-scaling-stroke"  transform=" translate(-1784.18, -1671.9)" d="M 1927 2090 C 1688 2009 1537 1875 1486 1700 C 1464 1627 1464 1489 1486 1403 C 1504 1331 1538 1244 1545 1251 C 1547 1254 1563 1296 1581 1345 C 1642 1522 1735 1689 1843 1822 C 1869 1854 1890 1882 1890 1885 C 1890 1888 1878 1884 1862 1876 C 1791 1839 1646 1616 1571 1428 C 1558 1396 1544 1370 1540 1370 C 1526 1370 1507 1458 1504 1540 C 1498 1716 1575 1856 1735 1959 C 1845 2030 1998 2086 2021 2063 C 2045 2039 2059 1936 2057 1796 C 2055 1656 2055 1655 2018 1578 C 1976 1490 1916 1420 1832 1363 C 1774 1324 1672 1275 1664 1283 C 1661 1285 1666 1306 1675 1329 C 1683 1351 1697 1389 1706 1413 C 1714 1436 1762 1538 1812 1640 C 1863 1742 1905 1836 1907 1850 L 1910 1875 L 1890 1851 C 1826 1775 1582 1245 1602 1225 C 1612 1214 1777 1281 1834 1318 C 2007 1432 2088 1572 2098 1776 C 2105 1925 2068 2120 2032 2120 C 2023 2120 1976 2106 1927 2090 z" stroke-linecap="round" />
</g>
		<g transform="matrix(0.13 0 0 -0.13 -84.11 79.32)"  >
<path style="stroke: none; stroke-width: 1; stroke-dasharray: none; stroke-linecap: butt; stroke-dashoffset: 0; stroke-linejoin: miter; stroke-miterlimit: 4; fill: rgb(0,0,0); fill-rule: nonzero; opacity: 1;" vector-effect="non-scaling-stroke"  transform=" translate(-878.46, -895.25)" d="M 747 1043 C 733 1030 741 1002 793 881 C 872 694 888 694 968 881 C 1023 1011 1029 1045 995 1045 C 979 1045 966 1023 930 933 C 905 871 883 820 880 820 C 877 820 858 866 836 923 C 815 979 793 1031 787 1038 C 777 1051 757 1054 747 1043 z" stroke-linecap="round" />
</g>
		<g transform="matrix(0.13 0 0 -0.13 -43.86 79.42)"  >
<path style="stroke: none; stroke-width: 1; stroke-dasharray: none; stroke-linecap: butt; stroke-dashoffset: 0; stroke-linejoin: miter; stroke-miterlimit: 4; fill: rgb(0,0,0); fill-rule: nonzero; opacity: 1;" vector-effect="non-scaling-stroke"  transform=" translate(-1180.34, -894.55)" d="M 1079 1039 C 1073 1036 1071 971 1072 889 L 1075 745 L 1180 745 C 1275 745 1285 747 1288 764 C 1294 792 1272 801 1196 799 L 1126 797 L 1126 831 L 1126 865 L 1195 868 C 1264 871 1283 881 1273 907 C 1269 916 1247 920 1196 920 L 1124 920 L 1124 955 L 1124 990 L 1202 990 C 1264 990 1282 993 1287 1006 C 1290 1014 1288 1026 1282 1032 C 1271 1043 1095 1049 1079 1039 z" stroke-linecap="round" />
</g>
		<g transform="matrix(0.13 0 0 -0.13 -5.91 79.57)"  >
<path style="stroke: none; stroke-width: 1; stroke-dasharray: none; stroke-linecap: butt; stroke-dashoffset: 0; stroke-linejoin: miter; stroke-miterlimit: 4; fill: rgb(0,0,0); fill-rule: nonzero; opacity: 1;" vector-effect="non-scaling-stroke"  transform=" translate(-1464.95, -893.37)" d="M 1410 1033 C 1391 1023 1365 999 1352 980 C 1319 931 1324 834 1360 794 C 1410 741 1477 726 1551 752 C 1596 767 1600 774 1600 846 C 1600 916 1596 920 1525 920 C 1474 920 1450 899 1471 874 C 1480 863 1494 860 1517 863 C 1549 869 1550 868 1550 835 C 1550 805 1547 802 1515 796 C 1423 778 1359 851 1394 933 C 1413 979 1441 993 1499 986 C 1590 974 1594 974 1598 992 C 1607 1037 1473 1066 1410 1033 z" stroke-linecap="round" />
</g>
		<g transform="matrix(0.13 0 0 -0.13 35.98 79.46)"  >
<path style="stroke: none; stroke-width: 1; stroke-dasharray: none; stroke-linecap: butt; stroke-dashoffset: 0; stroke-linejoin: miter; stroke-miterlimit: 4; fill: rgb(0,0,0); fill-rule: nonzero; opacity: 1;" vector-effect="non-scaling-stroke"  transform=" translate(-1779.13, -894.23)" d="M 1753 1038 C 1732 1011 1639 779 1642 763 C 1648 730 1678 737 1698 776 C 1717 813 1718 813 1780 814 L 1842 815 L 1857 778 C 1873 738 1905 726 1916 755 C 1923 772 1815 1030 1797 1042 C 1779 1053 1764 1052 1753 1038 z M 1801 916 L 1817 872 L 1778 868 C 1757 866 1740 867 1740 869 C 1740 882 1773 960 1779 960 C 1782 960 1792 940 1801 916 z" stroke-linecap="round" />
</g>
		<g transform="matrix(0.13 0 0 -0.13 79.48 79.38)"  >
<path style="stroke: none; stroke-width: 1; stroke-dasharray: none; stroke-linecap: butt; stroke-dashoffset: 0; stroke-linejoin: miter; stroke-miterlimit: 4; fill: rgb(0,0,0); fill-rule: nonzero; opacity: 1;" vector-effect="non-scaling-stroke"  transform=" translate(-2105.42, -894.81)" d="M 1982 1038 C 1974 1030 1970 982 1970 888 C 1970 771 1972 748 1986 743 C 2015 732 2023 757 2021 862 C 2020 919 2023 961 2027 955 C 2032 950 2067 899 2105 843 C 2174 739 2198 722 2228 752 C 2247 771 2244 1024 2225 1040 C 2217 1047 2203 1050 2195 1046 C 2183 1042 2180 1020 2180 934 L 2180 827 L 2109 931 C 2023 1056 2010 1066 1982 1038 z" stroke-linecap="round" />
</g>
</g>
</g>
</svg>